<?xml version="1.0" encoding="UTF-8"?>
<svg version="1.1" xmlns="http://www.w3.org/2000/svg" width="500" height="500">
<path d="M0 0 C165 0 330 0 500 0 C500 165 500 330 500 500 C335 500 170 500 0 500 C0 335 0 170 0 0 Z " fill="#FEFEFE" transform="translate(0,0)"/>
<path d="M0 0 C8.33943518 6.83935386 11.63421632 22.60137336 12.80957031 32.78857422 C14.91134592 57.19611714 8.76372291 79.20714074 -2.74707031 100.64990234 C-4.22794929 103.42756038 -5.67324734 106.22249486 -7.1171875 109.01953125 C-16.16231828 126.52313151 -16.16231828 126.52313151 -19.40234375 132.375 C-26.85344219 145.84229857 -33.44985255 160.29903791 -33.25 175.9375 C-33.23549805 177.13415283 -33.23549805 177.13415283 -33.22070312 178.35498047 C-32.95229911 191.45578051 -28.17826944 202.40335873 -20.80859375 213.21484375 C-18.26479461 217.13218455 -17.54462888 220.35992533 -18 225 C-20.63394539 231.85067448 -25.35376667 235.37083192 -31.9375 238.3125 C-35.93643563 239.21022024 -38.02960266 239.1911192 -42 238 C-45.57775289 235.60492622 -48.76650455 232.83552678 -52 230 C-52.75539062 229.38898438 -53.51078125 228.77796875 -54.2890625 228.1484375 C-69.54704401 215.47838219 -79.88596873 197.04902221 -81.83886719 177.24462891 C-83.68061313 151.58854979 -80.94913045 132.35437254 -65.03955078 111.64233398 C-39.3878418 78.2401163 -13.28883602 40.31372851 0 0 Z " fill="#89A668" transform="translate(234,85)"/>
<path d="M0 0 C4.03950178 4.99778859 6.28410537 10.85303657 8.875 16.6875 C9.14423279 17.29170776 9.41346558 17.89591553 9.69085693 18.51843262 C13.97872176 28.18143427 17.42487378 37.74589379 20 48 C20.34804688 49.09828125 20.69609375 50.1965625 21.0546875 51.328125 C24.86735476 66.137659 24.74622257 84.51153111 20 99 C19.79600586 99.62712891 19.59201172 100.25425781 19.38183594 100.90039062 C14.36867659 116.00554325 6.8223448 133.26660271 -8 141 C-14.97392288 143.63166901 -21.61365305 144.24543592 -28.5625 141.375 C-30.059935 140.61845618 -31.53984586 139.82620822 -33 139 C-33.70382813 138.61070312 -34.40765625 138.22140625 -35.1328125 137.8203125 C-41.4683918 133.74916079 -44.5981256 128.03094141 -47 121 C-50.24037515 104.28525912 -36.07353916 87.58801149 -27.37353516 74.56542969 C-26.33712266 73.03446084 -25.29947279 71.50432882 -24.26049805 69.97509766 C-11.60653353 51.33468508 -1.47942263 32.09271714 -0.4375 9.1875 C-0.37272461 7.86202148 -0.37272461 7.86202148 -0.30664062 6.50976562 C-0.20108464 4.34000377 -0.10008929 2.1700209 0 0 Z " fill="#8AA669" transform="translate(264,136)"/>
<path d="M0 0 C11.87528006 11.01257397 21.2087742 33.35900118 22.14526367 49.50439453 C22.17008716 52.37804684 22.18565784 55.25123261 22.1875 58.125 C22.19974609 59.10726562 22.21199219 60.08953125 22.22460938 61.1015625 C22.26509293 81.61323238 15.07353034 100.29381366 2 116 C1.29423828 116.90685547 1.29423828 116.90685547 0.57421875 117.83203125 C-11.15165913 132.46460562 -31.4933612 143.2098468 -50.0703125 145.78515625 C-54.02692233 146.07530764 -57.97122673 146.28186754 -61.9375 146.375 C-62.67234619 146.40134521 -63.40719238 146.42769043 -64.16430664 146.45483398 C-67.56592622 146.46465958 -69.68063016 146.20513558 -72.56640625 144.3515625 C-74 142 -74 142 -74.37109375 139.1796875 C-72.14896741 134.02638025 -67.72665656 131.9925838 -63.0625 129.125 C-61.12314005 127.88049786 -59.18561127 126.63313711 -57.25 125.3828125 C-56.32832031 124.79274414 -55.40664062 124.20267578 -54.45703125 123.59472656 C-26.93045709 105.72871082 -8.3323474 76.71240253 -1 45 C-0.690625 43.72382813 -0.690625 43.72382813 -0.375 42.421875 C2.41123315 28.87768608 1.82987975 13.65874529 0 0 Z " fill="#8AA669" transform="translate(300,189)"/>
</svg>
