<?xml version="1.0" encoding="UTF-8"?>
<svg version="1.1" xmlns="http://www.w3.org/2000/svg" width="55" height="82">
<path d="M0 0 C3.70827614 3.20260212 4.83612321 6.52165887 5.37109375 11.34765625 C5.56298496 22.08227639 2.89029498 29.50786331 -2.078125 38.94921875 C-7.9586291 49.37333054 -7.9586291 49.37333054 -9 61 C-8.13759854 63.18947584 -7.12086983 65.1493273 -5.94140625 67.18359375 C-4.51659058 69.93271941 -4.43975321 71.9886735 -5 75 C-6.625 76.9375 -6.625 76.9375 -9 78 C-13.26105368 78.18938016 -15.56737383 76.83204148 -18.625 74.0625 C-25.29467366 66.75691511 -26.44203368 59.1498542 -26.53125 49.4921875 C-25.414402 42.15055433 -21.06575671 36.41319261 -16.8125 30.5 C-12.90429239 24.9391072 -9.27474813 19.29742084 -5.9375 13.375 C-5.56794189 12.72466797 -5.19838379 12.07433594 -4.81762695 11.40429688 C-2.76729956 7.69725105 -1.20552002 4.06004152 0 0 Z " fill="#FFFFFF" transform="translate(26,0)"/>
<path d="M0 0 C6.48863073 7.95380541 8.82694178 17.5911468 8.421875 27.6953125 C7.60511407 34.09327315 5.55743561 38.93745014 1.6875 44.0625 C-1.68427201 46.49331238 -3.85394181 47 -8 47 C-11.57387602 45.41161066 -12.81089572 44.28365642 -15 41 C-16.07587946 33.31514672 -12.18724124 28.41247922 -8.21484375 22.21484375 C-3.72894056 14.98596791 -1.42015872 8.38569913 0 0 Z " fill="#FFFFFF" transform="translate(36,17)"/>
<path d="M0 0 C0.66 0 1.32 0 2 0 C2.81837442 1.41328129 3.62946219 2.83078346 4.4375 4.25 C5.11619141 5.43335938 5.11619141 5.43335938 5.80859375 6.640625 C9.28858548 13.53214961 9.25074705 22.53391784 7.19921875 29.859375 C4.01442463 36.90751043 -1.42826641 42.76952577 -8.41796875 46.1796875 C-11.26063775 47.08280473 -13.84041418 47.41015042 -16.8125 47.625 C-17.78832031 47.69976562 -18.76414062 47.77453125 -19.76953125 47.8515625 C-20.50558594 47.90054688 -21.24164062 47.94953125 -22 48 C-22.33 46.35 -22.66 44.7 -23 43 C-22.28714844 42.52691406 -21.57429688 42.05382812 -20.83984375 41.56640625 C-10.81740955 34.64647523 -3.4410002 26.68422953 -0.40234375 14.62890625 C0.05949705 11.61124744 0.09603391 8.73908545 0.0625 5.6875 C0.05347656 4.61886719 0.04445313 3.55023438 0.03515625 2.44921875 C0.02355469 1.64097656 0.01195313 0.83273438 0 0 Z " fill="#FFFFFF" transform="translate(47,34)"/>
</svg>
