<?xml version="1.0" encoding="UTF-8"?>
<svg version="1.1" xmlns="http://www.w3.org/2000/svg" width="512" height="512">
<path d="M0 0 C0.97055328 0.00215515 1.94110657 0.0043103 2.94107056 0.00653076 C17.26361716 0.05754633 31.30505979 0.38406747 45.375 3.3125 C46.3846582 3.52181152 47.39431641 3.73112305 48.43457031 3.94677734 C90.38410499 12.90878105 129.1905014 30.65681696 161.375 59.3125 C161.98883545 59.84166016 162.6026709 60.37082031 163.23510742 60.91601562 C174.55883542 70.69015185 185.38456802 81.3355734 194.375 93.3125 C195.11097412 94.29041504 195.11097412 94.29041504 195.86181641 95.28808594 C202.91686923 104.71317902 209.57046847 114.27599054 215.36621094 124.52978516 C216.34618841 126.26158464 217.34856727 127.98064787 218.3515625 129.69921875 C240.38694176 168.34883546 245.91675411 210.56512324 247.375 254.3125 C84.685 254.3125 -78.005 254.3125 -245.625 254.3125 C-245.625 192.42234541 -229.704123 134.04670694 -188.02514648 86.90112305 C-187.0174902 85.7578241 -186.01795424 84.60734958 -185.02368164 83.45239258 C-174.06658105 70.76252675 -162.1660742 59.20340546 -148.625 49.3125 C-147.47394983 48.45443848 -146.32290823 47.59636549 -145.171875 46.73828125 C-136.97913506 40.69952811 -128.4540998 35.36536837 -119.625 30.3125 C-118.50222656 29.65636719 -117.37945312 29.00023437 -116.22265625 28.32421875 C-95.16825097 16.50627923 -71.9490373 8.92847905 -48.375 4.0625 C-47.27901489 3.83554443 -47.27901489 3.83554443 -46.16088867 3.60400391 C-30.80298468 0.63993346 -15.60365087 -0.0624353 0 0 Z " fill="#46BEE8" transform="translate(255.625,234.6875)"/>
<path d="M0 0 C3.19961023 1.44451929 5.63343031 3.24199308 8.3125 5.5 C21.37620068 16.06538712 35.9674876 24.55350265 51 32 C50.32943016 38.2615547 48.5998783 44.0379669 46.8125 50.0625 C38.27164225 79.8382313 34.53601686 109.92249205 32.4296875 140.73828125 C31.98892376 147.161411 31.49379007 153.58072903 31 160 C-2.99 160 -36.98 160 -72 160 C-71.35700788 147.14015765 -70.66995066 135.41850034 -68 123 C-67.74476562 121.78425293 -67.74476562 121.78425293 -67.484375 120.54394531 C-59.01765608 80.79572383 -40.93287613 45.40548085 -14 15 C-13.17113281 14.06027344 -12.34226563 13.12054688 -11.48828125 12.15234375 C-7.77124527 7.98066205 -4.01554404 3.88601036 0 0 Z " fill="#7FD5FA" transform="translate(98,313)"/>
<path d="M0 0 C4.14357714 0.38366455 6.05251569 1.57019817 8.875 4.5625 C9.56851563 5.2946875 10.26203125 6.026875 10.9765625 6.78125 C11.64429688 7.5134375 12.31203125 8.245625 13 9 C13.54398437 9.5878125 14.08796875 10.175625 14.6484375 10.78125 C16.47942501 12.81766538 18.24343061 14.89887277 20 17 C20.42796875 17.50885742 20.8559375 18.01771484 21.296875 18.54199219 C29.3704336 28.19588334 36.47123628 38.24431145 43 49 C43.41991211 49.68336426 43.83982422 50.36672852 44.27246094 51.07080078 C56.65464765 71.44196276 64.86953015 93.7841642 70 117 C70.16435547 117.7002832 70.32871094 118.40056641 70.49804688 119.12207031 C73.58366176 132.33194518 73.94941852 145.34244075 75 159 C41.01 159 7.02 159 -28 159 C-29.11918376 150.04652988 -29.11918376 150.04652988 -29.2109375 145.55859375 C-29.56808581 132.21522708 -30.63155616 119.20597552 -32.5847168 106.00341797 C-32.88894518 103.80317251 -33.15903994 101.59813456 -33.40942383 99.39111328 C-34.49330022 89.87676043 -36.17616941 80.6282447 -38.29418945 71.29101562 C-38.81169668 69.00355082 -39.3138021 66.71308107 -39.81445312 64.421875 C-41.64355984 56.18466883 -43.74211296 48.12564356 -46.43501282 40.12451172 C-47.52190941 36.84389734 -48 34.5146464 -48 31 C-46.97003906 30.47792969 -45.94007813 29.95585937 -44.87890625 29.41796875 C-29.42412723 21.47623486 -12.41782953 12.41782953 0 0 Z " fill="#7FD5FA" transform="translate(411,314)"/>
<path d="M0 0 C3.96454429 13.28882709 7.50908325 26.60218851 10.3125 40.1875 C10.55436035 41.35434326 10.7962207 42.52118652 11.04541016 43.72338867 C13.66956335 56.76925808 15.30947236 69.88918109 16.625 83.125 C16.82609375 84.99671875 16.82609375 84.99671875 17.03125 86.90625 C18.10972534 97.75703245 18 107.93398147 18 119 C-15.99 119 -49.98 119 -85 119 C-85 85.01 -85 51.02 -85 16 C-81.22559721 15.0563993 -78.12036258 14.83039313 -74.25 14.6875 C-56.04338904 13.75256011 -37.81793762 10.07842685 -20.59765625 4.15625 C-19.65172607 3.83245361 -18.7057959 3.50865723 -17.73120117 3.17504883 C-15.86345491 2.52926426 -14.00005337 1.87073728 -12.1418457 1.19799805 C-10.86120239 0.75000854 -10.86120239 0.75000854 -9.5546875 0.29296875 C-8.79655762 0.0199292 -8.03842773 -0.25311035 -7.25732422 -0.53442383 C-4.5630449 -1.09012258 -2.63947892 -0.69201238 0 0 Z " fill="#7FD5FA" transform="translate(349,354)"/>
<path d="M0 0 C5.4484009 0.93937947 10.47455114 2.48248362 15.6875 4.3125 C35.63325498 11.18769271 57.08006548 14.82076972 78.12890625 15.7890625 C81 16 81 16 84 17 C84 50.99 84 84.98 84 120 C50.01 120 16.02 120 -19 120 C-19 98.14199765 -19 98.14199765 -18.23046875 91.5 C-18.14997787 90.7348407 -18.069487 89.9696814 -17.98655701 89.18133545 C-17.73117274 86.78620273 -17.46063653 84.39316748 -17.1875 82 C-17.00096907 80.31414643 -16.8146101 78.62827383 -16.62841797 76.94238281 C-9.03724578 9.03724578 -9.03724578 9.03724578 0 0 Z " fill="#7FD5FA" transform="translate(164,353)"/>
<path d="M0 0 C7.89744917 5.24901167 7.89744917 5.24901167 10.93359375 8.28515625 C12.08859375 8.26453125 13.24359375 8.24390625 14.43359375 8.22265625 C21.99074995 8.18217148 28.18427172 9.52170947 34.13671875 14.37890625 C38.28017909 18.77457722 40.7289667 23.91148246 41.24609375 29.91015625 C41.14296875 30.69390625 41.03984375 31.47765625 40.93359375 32.28515625 C41.82046875 32.36765625 42.70734375 32.45015625 43.62109375 32.53515625 C48.77167306 33.70132515 51.03175213 36.13957365 54.24609375 40.22265625 C57.04484029 45.50029258 56.66427766 51.50678861 55.93359375 57.28515625 C53.50132816 62.52388213 49.1367546 66.68357582 43.93359375 69.28515625 C40.88378242 69.3996399 37.85630243 69.45304142 34.80566406 69.4621582 C33.85915985 69.4687294 32.91265564 69.4753006 31.93746948 69.48207092 C28.79555182 69.50183081 25.65368203 69.51347288 22.51171875 69.5234375 C20.90391666 69.52955079 20.90391666 69.52955079 19.26363373 69.53578758 C13.58982027 69.55666039 7.91603107 69.57095654 2.2421875 69.58032227 C-3.62018041 69.59138564 -9.48216862 69.62578152 -15.34440231 69.66549397 C-19.85000314 69.69163416 -24.35551318 69.70001184 -28.86118317 69.70360374 C-31.02213351 69.70847687 -33.18307961 69.72011142 -35.34395599 69.73864174 C-38.36990965 69.76297608 -41.39487699 69.76207829 -44.42089844 69.75512695 C-45.31255707 69.76793701 -46.2042157 69.78074707 -47.12289429 69.79394531 C-53.43683103 69.74111912 -57.1258817 68.20472694 -61.7109375 63.65234375 C-66.68689395 57.29510174 -67.03193768 52.31286042 -66.06640625 44.28515625 C-64.02410282 39.30306658 -61.38453136 36.13806073 -56.87890625 33.22265625 C-54.06640625 32.28515625 -54.06640625 32.28515625 -51.06640625 32.28515625 C-51.19015625 30.89296875 -51.19015625 30.89296875 -51.31640625 29.47265625 C-51.26620701 21.18978157 -47.3287313 13.53744631 -42.125 7.29296875 C-31.69385243 -2.88086398 -13.28482928 -7.22508259 0 0 Z " fill="#EDEFF1" transform="translate(436.06640625,139.71484375)"/>
<path d="M0 0 C7.89744917 5.24901167 7.89744917 5.24901167 10.93359375 8.28515625 C12.08859375 8.26453125 13.24359375 8.24390625 14.43359375 8.22265625 C21.99074995 8.18217148 28.18427172 9.52170947 34.13671875 14.37890625 C38.28017909 18.77457722 40.7289667 23.91148246 41.24609375 29.91015625 C41.14296875 30.69390625 41.03984375 31.47765625 40.93359375 32.28515625 C41.82046875 32.36765625 42.70734375 32.45015625 43.62109375 32.53515625 C48.77167306 33.70132515 51.03175213 36.13957365 54.24609375 40.22265625 C57.04484029 45.50029258 56.66427766 51.50678861 55.93359375 57.28515625 C53.50132816 62.52388213 49.1367546 66.68357582 43.93359375 69.28515625 C40.88378242 69.3996399 37.85630243 69.45304142 34.80566406 69.4621582 C33.85915985 69.4687294 32.91265564 69.4753006 31.93746948 69.48207092 C28.79555182 69.50183081 25.65368203 69.51347288 22.51171875 69.5234375 C20.90391666 69.52955079 20.90391666 69.52955079 19.26363373 69.53578758 C13.58982027 69.55666039 7.91603107 69.57095654 2.2421875 69.58032227 C-3.62018041 69.59138564 -9.48216862 69.62578152 -15.34440231 69.66549397 C-19.85000314 69.69163416 -24.35551318 69.70001184 -28.86118317 69.70360374 C-31.02213351 69.70847687 -33.18307961 69.72011142 -35.34395599 69.73864174 C-38.36990965 69.76297608 -41.39487699 69.76207829 -44.42089844 69.75512695 C-45.31255707 69.76793701 -46.2042157 69.78074707 -47.12289429 69.79394531 C-53.43683103 69.74111912 -57.1258817 68.20472694 -61.7109375 63.65234375 C-66.68689395 57.29510174 -67.03193768 52.31286042 -66.06640625 44.28515625 C-64.02410282 39.30306658 -61.38453136 36.13806073 -56.87890625 33.22265625 C-54.06640625 32.28515625 -54.06640625 32.28515625 -51.06640625 32.28515625 C-51.19015625 30.89296875 -51.19015625 30.89296875 -51.31640625 29.47265625 C-51.26620701 21.18978157 -47.3287313 13.53744631 -42.125 7.29296875 C-31.69385243 -2.88086398 -13.28482928 -7.22508259 0 0 Z " fill="#EDEFF1" transform="translate(86.06640625,139.71484375)"/>
<path d="M0 0 C1.0617897 -0.00701431 2.12357941 -0.01402863 3.21754456 -0.02125549 C6.62424008 -0.03865412 10.03076167 -0.04510763 13.4375 -0.046875 C15.18509109 -0.04788712 15.18509109 -0.04788712 16.96798706 -0.04891968 C34.31676457 -0.0329501 51.27895287 0.41873211 68.4375 3.203125 C70.05325928 3.45255859 70.05325928 3.45255859 71.70166016 3.70703125 C110.84245682 9.87003758 148.13324382 22.31484804 183.4375 40.203125 C182.83915275 44.34611167 181.43085715 47.38506877 179.375 51.015625 C178.82714844 51.99144531 178.27929688 52.96726563 177.71484375 53.97265625 C177.08255859 55.07673828 177.08255859 55.07673828 176.4375 56.203125 C175.26058594 55.65785156 174.08367187 55.11257812 172.87109375 54.55078125 C84.16890676 13.82455866 -14.46675762 4.67347361 -107.03125 38.91015625 C-120.76788979 44.15296611 -134.24050501 49.9872172 -147.5625 56.203125 C-148.73691535 54.10295877 -149.90214012 51.99853745 -151.0625 49.890625 C-151.39636719 49.29572266 -151.73023438 48.70082031 -152.07421875 48.08789062 C-153.63075114 45.24483656 -154.5625 43.49651512 -154.5625 40.203125 C-107.0742856 16.21365685 -53.55534695 0.23860684 0 0 Z " fill="#EDEFF1" transform="translate(241.5625,22.796875)"/>
<path d="M0 0 C0 33.66 0 67.32 0 102 C-27.57041305 100.378211 -52.20354251 95.74212585 -78 86 C-74.55592401 59.93099406 -50.36816298 28.4418734 -30.22509766 12.60449219 C-21.43207551 6.1402489 -11.11072151 0 0 0 Z " fill="#7FD5FA" transform="translate(248,252)"/>
<path d="M0 0 C6.96001755 0.77333528 11.07631442 1.46705454 16.9375 4.5625 C17.63206299 4.92255127 18.32662598 5.28260254 19.04223633 5.65356445 C24.95889956 8.81118333 30.07097285 12.43579848 35 17 C35.49032715 17.44408203 35.9806543 17.88816406 36.48583984 18.34570312 C54.74074764 35.0237191 70.70997956 59.26254428 78 83 C77.505 84.485 77.505 84.485 77 86 C74.48168945 87.19506836 74.48168945 87.19506836 71.11328125 88.33984375 C69.87602295 88.76136719 68.63876465 89.18289063 67.36401367 89.6171875 C66.01411909 90.05915905 64.66359806 90.49922124 63.3125 90.9375 C62.63184479 91.16099121 61.95118958 91.38448242 61.24990845 91.61474609 C40.83824553 98.28056239 21.83206074 100.25343514 0 102 C0 68.34 0 34.68 0 0 Z " fill="#7FD5FA" transform="translate(264,252)"/>
<path d="M0 0 C-0.49886719 0.45246094 -0.99773437 0.90492188 -1.51171875 1.37109375 C-21.13074577 20.00388601 -35.75719156 45.70389268 -45 71 C-50.02806283 70.41603207 -53.91238843 68.12731912 -58.25 65.6875 C-59.03270264 65.24962158 -59.81540527 64.81174316 -60.62182617 64.3605957 C-66.37932419 61.07199775 -71.8913971 57.50312243 -77.3125 53.6875 C-78.01084961 53.19660889 -78.70919922 52.70571777 -79.42871094 52.19995117 C-83.31255549 49.40291838 -86.71812876 46.48500447 -90 43 C-75.21789242 31.00446566 -59.28461749 20.97985482 -42 13 C-41.35498535 12.69755371 -40.7099707 12.39510742 -40.04541016 12.08349609 C-8.24095156 -2.74698385 -8.24095156 -2.74698385 0 0 Z " fill="#7FD5FA" transform="translate(201,259)"/>
<path d="M0 0 C6.90803147 1.22746014 13.48299058 2.93430727 20.125 5.1875 C21.03805908 5.49647217 21.95111816 5.80544434 22.8918457 6.1237793 C47.68314263 14.66794206 69.44623278 27.82219612 90 44 C79.35624143 55.11506891 65.4010106 62.68855167 52 70 C51.31824707 70.37640625 50.63649414 70.7528125 49.93408203 71.140625 C48 72 48 72 45 72 C44.62230469 71.08863281 44.24460937 70.17726563 43.85546875 69.23828125 C33.79685354 45.39795532 21.46819849 24.21548373 3.8828125 5.12890625 C2 3 2 3 0 0 Z " fill="#7FD5FA" transform="translate(311,258)"/>
<path d="M0 0 C5.61 0 11.22 0 17 0 C17.59325118 10.23358281 15.16005467 17.59647653 9.75 26.25 C6.09759689 32.89756144 5.23639575 39.59518704 7 47 C9.15157632 52.92917999 12.03707612 58.51413588 15.06030273 64.03979492 C19.22608436 72.72960024 18.48293162 87.19006449 15.375 96.0625 C13.37678454 100.63189592 10.87824847 104.95262337 8.26953125 109.19921875 C6.50882468 112.71529729 6.50882468 112.71529729 6 120 C0.39 120 -5.22 120 -11 120 C-11.60559832 109.55342905 -8.81668221 102.22828603 -3.75 93.1875 C-0.44521024 86.56092927 0.83061157 80.28280027 -1 73 C-3.1893853 67.09344524 -6.06213982 61.50724627 -9.06030273 55.97607422 C-13.193958 47.28347726 -12.51195625 32.86417929 -9.375 24 C-8.63376406 22.31030086 -7.8394255 20.64313077 -7 19 C-6.48308594 17.98421875 -5.96617187 16.9684375 -5.43359375 15.921875 C-4.4046067 13.90853167 -3.35243391 11.90673962 -2.26953125 9.921875 C-0.60545005 6.44473123 -0.60545005 6.44473123 0 0 Z " fill="#FFB0AA" transform="translate(321,89)"/>
<path d="M0 0 C5.61 0 11.22 0 17 0 C17.59325118 10.23358281 15.16005467 17.59647653 9.75 26.25 C6.09759689 32.89756144 5.23639575 39.59518704 7 47 C9.15157632 52.92917999 12.03707612 58.51413588 15.06030273 64.03979492 C19.22608436 72.72960024 18.48293162 87.19006449 15.375 96.0625 C13.37678454 100.63189592 10.87824847 104.95262337 8.26953125 109.19921875 C6.50882468 112.71529729 6.50882468 112.71529729 6 120 C0.39 120 -5.22 120 -11 120 C-11.60559832 109.55342905 -8.81668221 102.22828603 -3.75 93.1875 C-0.44521024 86.56092927 0.83061157 80.28280027 -1 73 C-3.1893853 67.09344524 -6.06213982 61.50724627 -9.06030273 55.97607422 C-13.193958 47.28347726 -12.51195625 32.86417929 -9.375 24 C-8.63376406 22.31030086 -7.8394255 20.64313077 -7 19 C-6.48308594 17.98421875 -5.96617187 16.9684375 -5.43359375 15.921875 C-4.4046067 13.90853167 -3.35243391 11.90673962 -2.26953125 9.921875 C-0.60545005 6.44473123 -0.60545005 6.44473123 0 0 Z " fill="#FFB0AA" transform="translate(253,89)"/>
<path d="M0 0 C5.61 0 11.22 0 17 0 C17.59325118 10.23358281 15.16005467 17.59647653 9.75 26.25 C6.09759689 32.89756144 5.23639575 39.59518704 7 47 C9.15157632 52.92917999 12.03707612 58.51413588 15.06030273 64.03979492 C19.22608436 72.72960024 18.48293162 87.19006449 15.375 96.0625 C13.37678454 100.63189592 10.87824847 104.95262337 8.26953125 109.19921875 C6.50882468 112.71529729 6.50882468 112.71529729 6 120 C0.39 120 -5.22 120 -11 120 C-11.60559832 109.55342905 -8.81668221 102.22828603 -3.75 93.1875 C-0.44521024 86.56092927 0.83061157 80.28280027 -1 73 C-3.1893853 67.09344524 -6.06213982 61.50724627 -9.06030273 55.97607422 C-13.193958 47.28347726 -12.51195625 32.86417929 -9.375 24 C-8.63376406 22.31030086 -7.8394255 20.64313077 -7 19 C-6.48308594 17.98421875 -5.96617187 16.9684375 -5.43359375 15.921875 C-4.4046067 13.90853167 -3.35243391 11.90673962 -2.26953125 9.921875 C-0.60545005 6.44473123 -0.60545005 6.44473123 0 0 Z " fill="#FFB0AA" transform="translate(185,89)"/>
</svg>
