<?xml version="1.0" encoding="UTF-8"?>
<svg version="1.1" xmlns="http://www.w3.org/2000/svg" width="218" height="83">
<path d="M0 0 C3.70827614 3.20260212 4.83612321 6.52165887 5.37109375 11.34765625 C5.56298496 22.08227639 2.89029498 29.50786331 -2.078125 38.94921875 C-7.9586291 49.37333054 -7.9586291 49.37333054 -9 61 C-8.13759854 63.18947584 -7.12086983 65.1493273 -5.94140625 67.18359375 C-4.51659058 69.93271941 -4.43975321 71.9886735 -5 75 C-6.625 76.9375 -6.625 76.9375 -9 78 C-13.26105368 78.18938016 -15.56737383 76.83204148 -18.625 74.0625 C-25.29467366 66.75691511 -26.44203368 59.1498542 -26.53125 49.4921875 C-25.414402 42.15055433 -21.06575671 36.41319261 -16.8125 30.5 C-12.90429239 24.9391072 -9.27474813 19.29742084 -5.9375 13.375 C-5.56794189 12.72466797 -5.19838379 12.07433594 -4.81762695 11.40429688 C-2.76729956 7.69725105 -1.20552002 4.06004152 0 0 Z " fill="#8BA96A" transform="translate(27,0)"/>
<path d="M0 0 C6.48863073 7.95380541 8.82694178 17.5911468 8.421875 27.6953125 C7.60511407 34.09327315 5.55743561 38.93745014 1.6875 44.0625 C-1.68427201 46.49331238 -3.85394181 47 -8 47 C-11.57387602 45.41161066 -12.81089572 44.28365642 -15 41 C-16.07587946 33.31514672 -12.18724124 28.41247922 -8.21484375 22.21484375 C-3.72894056 14.98596791 -1.42015872 8.38569913 0 0 Z " fill="#8BA96A" transform="translate(37,17)"/>
<path d="M0 0 C0.66 0 1.32 0 2 0 C2.81837442 1.41328129 3.62946219 2.83078346 4.4375 4.25 C5.11619141 5.43335938 5.11619141 5.43335938 5.80859375 6.640625 C9.28858548 13.53214961 9.25074705 22.53391784 7.19921875 29.859375 C4.01442463 36.90751043 -1.42826641 42.76952577 -8.41796875 46.1796875 C-11.26063775 47.08280473 -13.84041418 47.41015042 -16.8125 47.625 C-17.78832031 47.69976562 -18.76414062 47.77453125 -19.76953125 47.8515625 C-20.50558594 47.90054688 -21.24164062 47.94953125 -22 48 C-22.33 46.35 -22.66 44.7 -23 43 C-22.28714844 42.52691406 -21.57429688 42.05382812 -20.83984375 41.56640625 C-10.81740955 34.64647523 -3.4410002 26.68422953 -0.40234375 14.62890625 C0.05949705 11.61124744 0.09603391 8.73908545 0.0625 5.6875 C0.05347656 4.61886719 0.04445313 3.55023438 0.03515625 2.44921875 C0.02355469 1.64097656 0.01195313 0.83273438 0 0 Z " fill="#8BA96A" transform="translate(48,34)"/>
<path d="M0 0 C1.49080078 0.02707031 1.49080078 0.02707031 3.01171875 0.0546875 C3.77097656 0.07789063 4.53023437 0.10109375 5.3125 0.125 C4.6525 1.445 3.9925 2.765 3.3125 4.125 C2.219375 4.104375 1.12625 4.08375 0 4.0625 C-3.63134191 3.93955548 -3.63134191 3.93955548 -6.6875 5.125 C-7.34040411 8.97713427 -7.83781383 12.13722337 -7.25 16 C-4.75270775 19.39631746 -1.75340248 19.40363021 2.3125 20.125 C2.3125 18.145 2.3125 16.165 2.3125 14.125 C0.9925 14.125 -0.3275 14.125 -1.6875 14.125 C-1.6875 13.135 -1.6875 12.145 -1.6875 11.125 C0.6225 11.125 2.9325 11.125 5.3125 11.125 C5.33937279 12.93742052 5.35883715 14.74995233 5.375 16.5625 C5.38660156 17.57183594 5.39820312 18.58117187 5.41015625 19.62109375 C5.3125 22.125 5.3125 22.125 4.3125 23.125 C-0.56211149 23.67565056 -4.47003367 23.84554129 -8.75 21.3125 C-11.80981722 17.85786765 -11.96847579 14.71533631 -11.91015625 10.19140625 C-11.56955963 7.0304306 -10.39027003 4.77375337 -8.6875 2.125 C-5.26655758 -0.15562828 -4.00562778 -0.09425007 0 0 Z " fill="#55653F" transform="translate(114.6875,37.875)"/>
<path d="M0 0 C1.49080078 0.02707031 1.49080078 0.02707031 3.01171875 0.0546875 C3.77097656 0.07789063 4.53023437 0.10109375 5.3125 0.125 C4.6525 1.445 3.9925 2.765 3.3125 4.125 C2.219375 4.104375 1.12625 4.08375 0 4.0625 C-3.63134191 3.93955548 -3.63134191 3.93955548 -6.6875 5.125 C-7.34040411 8.97713427 -7.83781383 12.13722337 -7.25 16 C-4.75270775 19.39631746 -1.75340248 19.40363021 2.3125 20.125 C2.3125 18.145 2.3125 16.165 2.3125 14.125 C0.9925 14.125 -0.3275 14.125 -1.6875 14.125 C-1.6875 13.135 -1.6875 12.145 -1.6875 11.125 C0.6225 11.125 2.9325 11.125 5.3125 11.125 C5.33937279 12.93742052 5.35883715 14.74995233 5.375 16.5625 C5.38660156 17.57183594 5.39820312 18.58117187 5.41015625 19.62109375 C5.3125 22.125 5.3125 22.125 4.3125 23.125 C-0.56211149 23.67565056 -4.47003367 23.84554129 -8.75 21.3125 C-11.80981722 17.85786765 -11.96847579 14.71533631 -11.91015625 10.19140625 C-11.56955963 7.0304306 -10.39027003 4.77375337 -8.6875 2.125 C-5.26655758 -0.15562828 -4.00562778 -0.09425007 0 0 Z " fill="#55653F" transform="translate(76.6875,37.875)"/>
<path d="M0 0 C1.32 0 2.64 0 4 0 C4.99 1.98 5.98 3.96 7 6 C8.50559539 4.03617993 9.89131683 2.21736634 11 0 C12.32 0 13.64 0 15 0 C13.20320856 5.64705882 13.20320856 5.64705882 11.8125 8.0625 C10.65063673 10.83309704 11.08823414 12.13445014 12 15 C13.24818152 17.71365781 14.59419334 20.36492984 16 23 C14.35 23 12.7 23 11 23 C10.01 21.02 9.02 19.04 8 17 C6.49440461 18.96382007 5.10868317 20.78263366 4 23 C2.68 23 1.36 23 0 23 C1.79679144 17.35294118 1.79679144 17.35294118 3.1875 14.9375 C4.32735312 12.21938871 3.86572128 10.79694569 3 8 C2.01577854 5.99218823 1.01765927 3.99107248 0 2 C0 1.34 0 0.68 0 0 Z " fill="#55653F" transform="translate(128,38)"/>
<path d="M0 0 C11 0 11 0 13.1875 2.0625 C14.38501914 6.39199227 14.69633245 10.10995478 13.125 14.375 C12 16 12 16 10 17 C8.00039988 17.039992 5.99952758 17.04346799 4 17 C3.67 19.31 3.34 21.62 3 24 C2.01 24 1.02 24 0 24 C0 16.08 0 8.16 0 0 Z M5 3 C2.62005632 4.94332332 2.62005632 4.94332332 2.75 8.5 C2.62005632 12.05667668 2.62005632 12.05667668 5 14 C7.60280568 13.67958603 7.60280568 13.67958603 10 13 C11.0089034 8.76353233 11.0089034 8.76353233 10.0625 4.625 C9.711875 4.08875 9.36125 3.5525 9 3 C7.68 3 6.36 3 5 3 Z " fill="#55653F" transform="translate(146,44)"/>
<path d="M0 0 C0.99 0 1.98 0 3 0 C3 2.97 3 5.94 3 9 C5.97 9 8.94 9 12 9 C12 6.03 12 3.06 12 0 C12.99 0 13.98 0 15 0 C15 7.59 15 15.18 15 23 C14.01 23 13.02 23 12 23 C12 19.37 12 15.74 12 12 C9.03 12 6.06 12 3 12 C3 15.63 3 19.26 3 23 C2.01 23 1.02 23 0 23 C0 15.41 0 7.82 0 0 Z " fill="#55653F" transform="translate(85,38)"/>
<path d="M0 0 C3.4375 0.5 3.4375 0.5 5.3125 1.875 C7.79958713 5.46745919 7.80616531 8.14974934 7.4375 12.5 C5.875 15.4375 5.875 15.4375 3.4375 17.5 C-2.43800201 18.32463186 -2.43800201 18.32463186 -5.4375 16.125 C-7.92458713 12.53254081 -7.93116531 9.85025066 -7.5625 5.5 C-5.44869499 1.52604659 -4.50117926 0.63174446 0 0 Z M-2.5625 3.5 C-4.11386786 5.96393719 -4.59289129 7.18089146 -4.3125 10.125 C-3.7140662 12.65600229 -3.7140662 12.65600229 -1.5625 14.5 C0.4855428 14.4049261 0.4855428 14.4049261 2.4375 13.5 C4.74890296 10.73851844 4.74890296 10.73851844 4.125 7.9375 C3.52510162 5.51885389 3.52510162 5.51885389 2.4375 3.5 C0.7875 3.5 -0.8625 3.5 -2.5625 3.5 Z " fill="#55653F" transform="translate(175.5625,43.5)"/>
<path d="M0 0 C3.5 0.5625 3.5 0.5625 5.4375 2.75 C6.5 5.5625 6.5 5.5625 6.5 10.5625 C3.2 10.5625 -0.1 10.5625 -3.5 10.5625 C-2.51 12.0475 -2.51 12.0475 -1.5 13.5625 C2.06769552 14.29856499 2.06769552 14.29856499 5.5 14.5625 C5.5 15.5525 5.5 16.5425 5.5 17.5625 C4.06344146 17.64381463 2.6255517 17.70183559 1.1875 17.75 C-0.01326172 17.80220703 -0.01326172 17.80220703 -1.23828125 17.85546875 C-3.5 17.5625 -3.5 17.5625 -5.26953125 16.359375 C-6.88355869 14.00238254 -6.90062577 12.46518983 -6.875 9.625 C-6.88273438 8.77035156 -6.89046875 7.91570313 -6.8984375 7.03515625 C-6.15212591 2.40363431 -4.60252214 0.73969106 0 0 Z M-1.5 3.5625 C-2.16 4.8825 -2.82 6.2025 -3.5 7.5625 C-1.19 7.5625 1.12 7.5625 3.5 7.5625 C2.84 6.2425 2.18 4.9225 1.5 3.5625 C0.51 3.5625 -0.48 3.5625 -1.5 3.5625 Z " fill="#55653F" transform="translate(200.5,43.4375)"/>
<path d="M0 0 C0.99 0 1.98 0 3 0 C3 8.25 3 16.5 3 25 C2.01 25 1.02 25 0 25 C0 16.75 0 8.5 0 0 Z " fill="#55653F" transform="translate(163,36)"/>
<path d="M0 0 C2.64 0 5.28 0 8 0 C8 0.99 8 1.98 8 3 C6.68 3.33 5.36 3.66 4 4 C3.67 8.29 3.34 12.58 3 17 C2.01 17 1.02 17 0 17 C0 11.39 0 5.78 0 0 Z " fill="#55653F" transform="translate(209,44)"/>
<path d="M0 0 C2.31 0 4.62 0 7 0 C7 0.99 7 1.98 7 3 C6.01 3.66 5.02 4.32 4 5 C3.41518879 7.88595946 3.41518879 7.88595946 3.3125 11.125 C3.24675781 12.22070312 3.18101562 13.31640625 3.11328125 14.4453125 C3.05720703 15.70988281 3.05720703 15.70988281 3 17 C2.01 17 1.02 17 0 17 C0 11.39 0 5.78 0 0 Z " fill="#55653F" transform="translate(186,44)"/>
</svg>
