<?xml version="1.0" encoding="UTF-8"?>
<svg version="1.1" xmlns="http://www.w3.org/2000/svg" width="64" height="64">
<path d="M0 0 C7.57201122 4.09728332 13.85282319 10.06955798 17.078125 18.1328125 C19.36169397 26.3188267 19.43112823 36.90510577 15.33203125 44.48046875 C10.04567385 52.24722844 4.2372882 57.86066783 -5 60.4375 C-16.46179223 61.45896542 -25.22844565 60.5522779 -34.3125 53.0625 C-40.24301324 47.53285644 -43.6091826 41.82283477 -44.3359375 33.66796875 C-44.36534009 32.32057037 -44.37788693 30.97271606 -44.375 29.625 C-44.37483887 28.92157471 -44.37467773 28.21814941 -44.37451172 27.4934082 C-44.21410735 20.1679941 -41.96480534 15.384708 -38 9.4375 C-38 8.261875 -38 7.08625 -38 5.875 C-38 2.4375 -38 2.4375 -36 0.4375 C-33.80370062 0.29693684 -31.68057358 0.44133042 -29.484375 0.5625 C-26.89662809 0.54875415 -26.89662809 0.54875415 -24.19140625 -0.5390625 C-16.99181103 -2.84786782 -7.03340342 -2.86000523 0 0 Z " fill="#63A1F7" transform="translate(45,2.5625)"/>
<path d="M0 0 C2.25 0.9375 2.25 0.9375 4.25 3.9375 C7.5190324 5.29020306 9.87191128 4.63044128 13.25 3.9375 C14.24 4.2675 15.23 4.5975 16.25 4.9375 C18.39255793 4.54817144 18.39255793 4.54817144 20.25 3.9375 C22.05399829 8.57738359 22.6361657 12.81123256 22.625 17.75 C22.62411377 18.45415039 22.62322754 19.15830078 22.62231445 19.88378906 C22.45164731 27.40700455 20.18527865 33.26192955 15.25 38.9375 C12.38275314 38.36405063 11.3885485 38.0760485 9.25 35.9375 C9.0334375 34.7 9.0334375 34.7 8.8125 33.4375 C8.4734444 30.58813471 8.4734444 30.58813471 5.25 28.9375 C4.96930419 24.58671499 5.16197044 21.13418545 6.25 16.9375 C5.92 15.9475 5.59 14.9575 5.25 13.9375 C4.5075 14.288125 3.765 14.63875 3 15 C0.02701926 16.01351616 -0.93213534 16.21008404 -3.75 14.9375 C-7.02879877 12.50182091 -7.68508472 11.26207642 -8.5 7.1875 C-8.5825 6.115 -8.665 5.0425 -8.75 3.9375 C-3.51521739 -0.0798913 -3.51521739 -0.0798913 0 0 Z " fill="#51E973" transform="translate(40.75,14.0625)"/>
<path d="M0 0 C0.98033203 0.56460937 0.98033203 0.56460937 1.98046875 1.140625 C3.27984375 1.223125 4.57921875 1.305625 5.91796875 1.390625 C8.41764324 1.63222923 9.61298555 1.81271691 11.50390625 3.5 C12.69803964 5.01980613 13.84170927 6.57889772 14.98046875 8.140625 C15.97046875 8.470625 16.96046875 8.800625 17.98046875 9.140625 C18.41796875 11.765625 18.41796875 11.765625 17.98046875 15.140625 C16.31486696 16.88310072 14.56863878 18.24726704 12.609375 19.6484375 C10.65886061 21.43523965 10.58595159 22.63146306 9.98046875 25.140625 C9.01109375 25.615 8.04171875 26.089375 7.04296875 26.578125 C3.79328643 27.85916347 3.79328643 27.85916347 2.60546875 30.828125 C2.29609375 31.9728125 2.29609375 31.9728125 1.98046875 33.140625 C0.33046875 32.810625 -1.31953125 32.480625 -3.01953125 32.140625 C-4.26953125 24.515625 -4.26953125 24.515625 -2.01953125 21.140625 C-1.63453234 19.48512969 -1.2915999 17.8183817 -1.01953125 16.140625 C-2.66953125 15.810625 -4.31953125 15.480625 -6.01953125 15.140625 C-6.34953125 13.490625 -6.67953125 11.840625 -7.01953125 10.140625 C-8.00953125 10.140625 -8.99953125 10.140625 -10.01953125 10.140625 C-10.51953125 7.453125 -10.51953125 7.453125 -10.01953125 4.140625 C-7.23740332 1.45785878 -3.88659417 -1.65386986 0 0 Z " fill="#52E776" transform="translate(19.01953125,27.859375)"/>
<path d="M0 0 C1.03769531 -0.01675781 2.07539063 -0.03351563 3.14453125 -0.05078125 C6.56314058 0.35734541 8.35684866 1.41418543 11.1875 3.3125 C12.1775 3.6425 13.1675 3.9725 14.1875 4.3125 C14.1875 5.6325 14.1875 6.9525 14.1875 8.3125 C12.5375 8.3125 10.8875 8.3125 9.1875 8.3125 C9.0946875 9.7046875 9.0946875 9.7046875 9 11.125 C8.1875 14.3125 8.1875 14.3125 6 16.1875 C2.85572424 17.4452103 0.54375403 17.54665726 -2.8125 17.3125 C-2.4825 17.910625 -2.1525 18.50875 -1.8125 19.125 C-0.8125 21.3125 -0.8125 21.3125 -0.8125 24.3125 C-3.1875 24.4375 -3.1875 24.4375 -5.8125 24.3125 C-6.4725 23.6525 -7.1325 22.9925 -7.8125 22.3125 C-10.38311311 21.66482207 -10.38311311 21.66482207 -12.8125 21.3125 C-12.45515874 17.56041676 -11.94413482 15.4999799 -9.75 12.375 C-7.43004425 8.70797317 -7.64899199 6.56370821 -7.8125 2.3125 C-5.14098149 -0.35901851 -3.72067468 0.01376328 0 0 Z " fill="#52E778" transform="translate(14.8125,2.6875)"/>
<path d="M0 0 C5.796875 -0.1796875 5.796875 -0.1796875 7.625 1.4375 C8.07875 1.953125 8.5325 2.46875 9 3 C11.10332891 3.71447643 11.10332891 3.71447643 13 4 C13 4.66 13 5.32 13 6 C12.360625 6.20625 11.72125 6.4125 11.0625 6.625 C8.65074923 7.89538209 8.65074923 7.89538209 8.25 11.125 C8.1675 12.07375 8.085 13.0225 8 14 C8.99 14 9.98 14 11 14 C11.2475 14.804375 11.495 15.60875 11.75 16.4375 C12.72238859 19.171081 12.72238859 19.171081 15.125 19.8125 C16.053125 19.9053125 16.053125 19.9053125 17 20 C16.49856014 23.72498181 16.00017122 27.37437934 15 31 C14.66492782 32.33289742 14.33138366 33.66618076 14 35 C7.30607873 29.50838498 2.32996327 24.58671809 0 16 C-0.22390901 13.20113742 -0.19094928 10.43038094 -0.125 7.625 C-0.11597656 6.88894531 -0.10695312 6.15289062 -0.09765625 5.39453125 C-0.07430144 3.5962112 -0.03843836 1.79806089 0 0 Z " fill="#62A0F8" transform="translate(1,24)"/>
<path d="M0 0 C1.80399829 4.63988359 2.3861657 8.87373256 2.375 13.8125 C2.37411377 14.51665039 2.37322754 15.22080078 2.37231445 15.94628906 C2.20164731 23.46950455 -0.06472135 29.32442955 -5 35 C-6.32 34.67 -7.64 34.34 -9 34 C-9 30.62882517 -8.49595225 29.97833659 -6.625 27.3125 C-1.43553673 19.19753194 -1.74277245 11.37451502 -2 2 C-2.66 1.67 -3.32 1.34 -4 1 C-2 0 -2 0 0 0 Z " fill="#58C36E" transform="translate(61,18)"/>
<path d="M0 0 C2.475 0.99 2.475 0.99 5 2 C1.21204665 7.68193002 -3.70305252 9.90101751 -10 12 C-12.67771286 12.09644305 -15.32315677 12.1392892 -18 12.125 C-18.72445313 12.12886719 -19.44890625 12.13273437 -20.1953125 12.13671875 C-23.39282879 12.13081927 -25.94582607 12.01805798 -29 11 C-28.67 10.01 -28.34 9.02 -28 8 C-27.23816406 8.03480469 -26.47632813 8.06960937 -25.69140625 8.10546875 C-15.96819678 8.36038435 -8.81467999 6.86100999 -1 1 C-0.67 0.67 -0.34 0.34 0 0 Z " fill="#4893F4" transform="translate(50,51)"/>
<path d="M0 0 C2.52247667 1.81006171 4.89486117 3.7128607 7 6 C7 6.66 7 7.32 7 8 C3.625 8.125 3.625 8.125 0 8 C-0.66 7.34 -1.32 6.68 -2 6 C-4.33294775 5.95758277 -6.66702567 5.95907063 -9 6 C-9.99 5.67 -10.98 5.34 -12 5 C-11.875 3.125 -11.875 3.125 -11 1 C-7.04078754 -0.88962413 -4.1200693 -1.60783192 0 0 Z " fill="#51E57E" transform="translate(48,4)"/>
<path d="M0 0 C2.9375 0.1875 2.9375 0.1875 3.9375 1.1875 C4.24617281 4.66006915 4.32451339 6.5747288 2.4375 9.5625 C1.9425 10.09875 1.4475 10.635 0.9375 11.1875 C-0.0525 10.8575 -1.0425 10.5275 -2.0625 10.1875 C-2.0625 9.5275 -2.0625 8.8675 -2.0625 8.1875 C-2.7225 8.1875 -3.3825 8.1875 -4.0625 8.1875 C-4.6875 5.3125 -4.6875 5.3125 -5.0625 2.1875 C-3.0625 0.1875 -3.0625 0.1875 0 0 Z " fill="#ED4460" transform="translate(12.0625,2.8125)"/>
<path d="M0 0 C4.55555556 0.55555556 4.55555556 0.55555556 6 2 C6.34229288 5.16620913 6.25632099 6.60483847 4.5 9.3125 C3.7575 10.1478125 3.7575 10.1478125 3 11 C0 10 0 10 -2 7 C-2.25 4.4375 -2.25 4.4375 -2 2 C-1.34 1.34 -0.68 0.68 0 0 Z " fill="#E94A62" transform="translate(23,35)"/>
<path d="M0 0 C4.55555556 0.55555556 4.55555556 0.55555556 6 2 C6.34229288 5.16620913 6.25632099 6.60483847 4.5 9.3125 C3.7575 10.1478125 3.7575 10.1478125 3 11 C0 10 0 10 -2 7 C-2.25 4.4375 -2.25 4.4375 -2 2 C-1.34 1.34 -0.68 0.68 0 0 Z " fill="#E94964" transform="translate(50,18)"/>
</svg>
