<?xml version="1.0" encoding="UTF-8"?>
<svg version="1.1" xmlns="http://www.w3.org/2000/svg" width="24" height="24">
<path d="M0 0 C4.30334323 0.05694405 6.77415297 1.49391683 10.0625 4.3125 C12.41031141 7.30062362 12.48075081 10.53161188 12.3828125 14.28125 C11.74029482 18.35575238 9.49107538 21.19004791 6.3125 23.6875 C1.09612133 25.13649408 -2.58646519 25.01303657 -7.3125 22.5625 C-11.25446132 19.18367601 -11.82391238 17.69826891 -12.25 12.5 C-12.11866725 8.11676933 -11.17740553 5.09716796 -8.9375 1.3125 C-5.98930956 0.04898981 -3.21698429 0.25531621 0 0 Z " fill="#62A2F3" transform="translate(11.9375,-0.3125)"/>
<path d="M0 0 C0 0.66 0 1.32 0 2 C1.7015625 1.9690625 1.7015625 1.9690625 3.4375 1.9375 C7 2 7 2 8 3 C8.41221374 11.38167939 8.41221374 11.38167939 6 15 C5.01 15 4.02 15 3 15 C1.38050989 12.42786866 0.95591249 11.32330841 1.375 8.25 C1.58125 7.5075 1.7875 6.765 2 6 C-0.97 5.505 -0.97 5.505 -4 5 C-4 3.68 -4 2.36 -4 1 C-2 0 -2 0 0 0 Z " fill="#52E57B" transform="translate(16,5)"/>
<path d="M0 0 C0.94875 0.350625 1.8975 0.70125 2.875 1.0625 C2.875 1.7225 2.875 2.3825 2.875 3.0625 C3.535 3.0625 4.195 3.0625 4.875 3.0625 C3.3472133 6.50002007 1.37318944 9.25203688 -1.125 12.0625 C-1.785 12.0625 -2.445 12.0625 -3.125 12.0625 C-3.0321875 10.6703125 -3.0321875 10.6703125 -2.9375 9.25 C-2.81605736 6.07854897 -2.81605736 6.07854897 -4.625 4.1875 C-5.12 3.81625 -5.615 3.445 -6.125 3.0625 C-5.795 2.0725 -5.465 1.0825 -5.125 0.0625 C-3.125 -0.9375 -3.125 -0.9375 0 0 Z " fill="#52E47E" transform="translate(9.125,10.9375)"/>
<path d="M0 0 C2.64 0.33 5.28 0.66 8 1 C8 1.66 8 2.32 8 3 C7.34 3 6.68 3 6 3 C5.34 4.32 4.68 5.64 4 7 C3.34 7 2.68 7 2 7 C2 7.66 2 8.32 2 9 C0.35 8.67 -1.3 8.34 -3 8 C-2.01 5.36 -1.02 2.72 0 0 Z " fill="#75BC7A" transform="translate(3,1)"/>
<path d="M0 0 C1.66611905 -0.042721 3.33382885 -0.04063832 5 0 C6 1 6 1 6.1875 4.8125 C6.1585691 8.03540201 5.82970185 10.25544723 4 13 C3.01 12.67 2.02 12.34 1 12 C1.33 11.443125 1.66 10.88625 2 10.3125 C3.1309601 7.69715478 3.15662974 5.8193354 3 3 C2.01 3 1.02 3 0 3 C0 2.01 0 1.02 0 0 Z " fill="#78A977" transform="translate(18,7)"/>
<path d="M0 0 C0.99 0 1.98 0 3 0 C3.3669579 6.48292295 3.3669579 6.48292295 1.625 8.9375 C0 10 0 10 -2 10 C-1.85950482 8.52031676 -1.71245174 7.04125484 -1.5625 5.5625 C-1.48128906 4.73878906 -1.40007813 3.91507813 -1.31640625 3.06640625 C-1 1 -1 1 0 0 Z " fill="#7CB871" transform="translate(8,13)"/>
<path d="M0 0 C2.0625 0.4375 2.0625 0.4375 4 1 C-0.48074195 4.36055646 -3.60550707 4.27429625 -9 4 C-9 3.34 -9 2.68 -9 2 C-6.94921875 1.77213542 -4.8984375 1.54427083 -2.84765625 1.31640625 C-0.98859771 1.18113386 -0.98859771 1.18113386 0 0 Z " fill="#4D96F5" transform="translate(17,20)"/>
<path d="M0 0 C2.97 0.495 2.97 0.495 6 1 C6.33 1.99 6.66 2.98 7 4 C4.69 3.67 2.38 3.34 0 3 C0 2.01 0 1.02 0 0 Z " fill="#55D29D" transform="translate(14,1)"/>
</svg>
